HIERARCHY
ROOT root
{
	OFFSET	0	13.1	24.9
	CHANNELS 6  Xposition Yposition Zposition Xrotation Yrotation Zrotation
	JOINT spine_1
	{
		OFFSET	0	9.99999	0
		CHANNELS 3  Xrotation Yrotation Zrotation
		JOINT spine_2
		{
			OFFSET	0	112	-10
			CHANNELS 3  Xrotation Yrotation Zrotation
			JOINT spine_3
			{
				OFFSET	0	206.5	19.3
				CHANNELS 3  Xrotation Yrotation Zrotation
				JOINT spine_4
				{
					OFFSET	0	110.4	14.6
					CHANNELS 3  Xrotation Yrotation Zrotation
					JOINT neck_1
					{
						OFFSET	0	71.8	-50.3
						CHANNELS 3  Xrotation Yrotation Zrotation
						JOINT neck_2
						{
							OFFSET	0	86.2	-25.8
							CHANNELS 3  Xrotation Yrotation Zrotation
							JOINT head_ee
							{
								OFFSET	0	179.8	-8.7
								CHANNELS 3  Xrotation Yrotation Zrotation
								End Site
								{
									OFFSET	1	0	0
								}
							}
						}
					}
					JOINT left_clavicle
					{
						OFFSET	-43.2	22.4	-70.8
						CHANNELS 3  Xrotation Yrotation Zrotation
						JOINT left_shoulder
						{
							OFFSET	-93.9	-5.79999	48.7
							CHANNELS 3  Xrotation Yrotation Zrotation
							JOINT left_elbow
							{
								OFFSET	-291.4	-30.8	15.2
								CHANNELS 3  Xrotation Yrotation Zrotation
								JOINT left_lowarm_twist
								{
									OFFSET	-110.7	-3.89999	13.6
									CHANNELS 3  Xrotation Yrotation Zrotation
									JOINT left_hand
									{
										OFFSET	-110.7	-3.89999	13.6
										CHANNELS 3  Xrotation Yrotation Zrotation
										JOINT left_ee
										{
											OFFSET	-80.8	-5.10001	12.1
											CHANNELS 3  Xrotation Yrotation Zrotation
											End Site
											{
												OFFSET	1	0	0
											}
										}
									}
								}
							}
						}
					}
					JOINT right_clavicle
					{
						OFFSET	43.2	22.4	-70.8
						CHANNELS 3  Xrotation Yrotation Zrotation
						JOINT right_shoulder
						{
							OFFSET	93.9	-5.79999	48.7
							CHANNELS 3  Xrotation Yrotation Zrotation
							JOINT right_elbow
							{
								OFFSET	291.4	-30.8	15.2
								CHANNELS 3  Xrotation Yrotation Zrotation
								JOINT right_lowarm_twist
								{
									OFFSET	110.7	-3.89999	13.6
									CHANNELS 3  Xrotation Yrotation Zrotation
									JOINT right_hand
									{
										OFFSET	110.7	-3.89999	13.6
										CHANNELS 3  Xrotation Yrotation Zrotation
										JOINT right_ee
										{
											OFFSET	80.8	-5.10001	12.1
											CHANNELS 3  Xrotation Yrotation Zrotation
											End Site
											{
												OFFSET	1	0	0
											}
										}
									}
								}
							}
						}
					}
				}
			}
		}
	}
	JOINT left_hip
	{
		OFFSET	-82.8	-127.5	0.300001
		CHANNELS 3  Xrotation Yrotation Zrotation
		JOINT left_knee
		{
			OFFSET	-28.2	-396.7	2.2
			CHANNELS 3  Xrotation Yrotation Zrotation
			JOINT left_ankle
			{
				OFFSET	-11.7	-411.3	35.4
				CHANNELS 3  Xrotation Yrotation Zrotation
				JOINT left_toes
				{
					OFFSET	0	-60	-88.6
					CHANNELS 3  Xrotation Yrotation Zrotation
					JOINT left_foot_ee
					{
						OFFSET	-22.5	-16.5	-42.2
						CHANNELS 3  Xrotation Yrotation Zrotation
						End Site
						{
							OFFSET	1	0	0
						}
					}
				}
			}
		}
	}
	JOINT right_hip
	{
		OFFSET	82.8	-127.5	0.300001
		CHANNELS 3  Xrotation Yrotation Zrotation
		JOINT right_knee
		{
			OFFSET	28.2	-396.7	2.2
			CHANNELS 3  Xrotation Yrotation Zrotation
			JOINT right_ankle
			{
				OFFSET	11.7	-411.3	35.4
				CHANNELS 3  Xrotation Yrotation Zrotation
				JOINT right_toes
				{
					OFFSET	0	-60	-88.6
					CHANNELS 3  Xrotation Yrotation Zrotation
					JOINT right_foot_ee
					{
						OFFSET	22.5	-16.5	-42.2
						CHANNELS 3  Xrotation Yrotation Zrotation
						End Site
						{
							OFFSET	1	0	0
						}
					}
				}
			}
		}
	}
}
MOTION
Frames: 8
Frame Time: 0.02
600.679 685.242 -1620.24 -108.666 82.5258 108.803 3.82882 0.0152178 -0.00065278 3.82882 0.0152285 0.000316889 3.82882 0.015023 0.00251291 3.82882 0.0152314 0.00010876 -12.8275 17.3628 -4.22936 -13.7176 35.6428 1.51987 -0.0 0.0 -0.0 0.292784 20.813 2.84542 -25.7539 -37.5959 62.5802 0.200293 -5.66645 0.00991243 -55.7082 -4.75435 4.94765 2.19863 6.91402 17.4931 -0.0 0.0 -0.0 12.038 -24.0781 -19.8081 -4.65725 19.8407 -65.4195 1.22533 31.2561 -0.342777 -55.1159 4.68236 -4.92336 6.16259 -32.8314 -52.9496 0.0 0.0 0.0 16.7158 -0.550206 -15.6521 -29.7469 0.0536773 4.51379 30.6395 -10.0401 -4.11667 29.4626 -0.0 -0.0 -0.0 0.0 -0.0 17.4221 12.7057 -8.81043 0.279633 0.0116158 0.0413396 26.0726 -27.2116 3.69023 -25.5258 0.0 0.0 0.0 0.0 0.0 
591.711 685.91 -1626.75 -115.421 81.5866 115.653 4.26617 -0.130103 0.245774 4.26619 -0.145478 0.236998 4.26557 -0.17655 0.214854 4.26554 -0.140402 0.24004 -13.7129 16.2719 -5.2674 -14.6183 34.2109 0.442643 -0.0 0.0 -0.0 0.165041 18.8925 2.45492 -28.3155 -34.8247 63.656 0.189845 -5.37264 0.00890751 -56.4071 -4.83961 4.97535 2.26734 7.86881 18.3078 -0.0 0.0 -0.0 11.9892 -24.2446 -19.6899 -3.77446 20.3279 -66.183 1.45486 35.7779 -0.46962 -53.9091 4.53645 -4.87157 6.28082 -33.0506 -54.0955 0.0 0.0 0.0 17.3284 2.73394 -15.576 -20.3467 0.291356 3.09239 26.6936 -10.3815 -3.68207 27.105 -0.0 -0.0 -0.0 0.0 -0.0 16.5269 12.9662 -9.0687 1.31583 0.0564168 0.194032 25.9726 -27.2946 3.6798 -26.5637 0.0 0.0 0.0 0.0 0.0 
572.207 687.129 -1628.33 -116.455 81.5855 116.534 4.4797 0.00847613 0.239642 4.47973 -0.00679003 0.239695 4.47968 -0.0386508 0.236656 4.4796 -0.000790443 0.23979 -15.8884 16.338 -3.95186 -17.1136 33.5502 2.46352 -0.0 0.0 -0.0 0.067343 16.7301 2.06766 -31.061 -32.8447 64.4425 0.213852 -6.04729 0.0112961 -55.2723 -4.70134 4.92984 2.89622 8.73662 22.9901 -0.0 0.0 -0.0 11.6995 -25.3809 -18.9599 -5.44035 19.8135 -65.8416 1.67731 39.7196 -0.605884 -53.9872 4.54587 -4.87502 6.23339 -31.7991 -53.8506 0.0 0.0 0.0 18.3158 5.0844 -14.9319 -18.595 0.309713 2.82424 22.8094 -9.30749 -3.19888 24.1474 -0.0 -0.0 -0.0 0.0 -0.0 15.0022 13.2168 -9.43256 1.05463 0.0448625 0.155617 27.6421 -27.3736 3.88727 -29.2203 0.0 0.0 0.0 0.0 0.0 
559.479 688.186 -1629.91 -118.533 81.7973 118.45 4.76004 0.113551 0.257254 4.76007 0.0969516 0.263958 4.76049 0.0622814 0.274216 4.7604 0.104807 0.260938 -16.9501 15.7218 -2.43407 -18.1698 31.5211 3.93335 -0.0 0.0 -0.0 -0.0371586 15.192 1.72768 -32.5385 -31.1632 65.898 0.211755 -5.98842 0.0110761 -54.895 -4.65556 4.91411 3.20282 8.45503 25.0845 -0.0 0.0 -0.0 11.7003 -25.7569 -18.865 -5.64225 19.6569 -65.7087 1.83832 42.3184 -0.711582 -53.7728 4.52005 -4.86553 6.20414 -30.9169 -53.6887 0.0 0.0 0.0 18.9715 6.8286 -14.8204 -16.4561 0.321 2.49629 17.6551 -9.50788 -2.54455 20.7107 -0.0 -0.0 -0.0 0.0 -0.0 13.5723 12.1751 -9.26729 1.78085 0.0774201 0.262292 28.6558 -27.3674 4.00962 -30.9069 0.0 0.0 0.0 0.0 0.0 
546.36 689.098 -1630.59 -120.628 81.8697 120.336 5.0443 0.101239 0.218038 5.04433 0.0871593 0.224038 5.04465 0.0588487 0.233081 5.04458 0.0949208 0.220862 -17.7957 14.6284 -0.113933 -18.8357 28.1786 5.80339 -0.0 0.0 -0.0 -0.0946577 14.8796 1.59925 -33.9619 -30.004 66.6084 0.212375 -6.00582 0.0111409 -54.4453 -4.60115 4.89496 3.67392 6.75705 27.9563 -0.0 0.0 -0.0 11.4892 -26.2871 -18.4202 -5.72486 19.4595 -65.6178 1.96739 44.2577 -0.800093 -53.1996 4.45118 -4.83969 6.34573 -30.5593 -55.2379 0.0 0.0 0.0 19.3761 7.95234 -14.6894 -15.7489 0.322038 2.38779 15.4141 -11.4013 -2.26884 16.9834 -0.0 -0.0 -0.0 0.0 -0.0 12.2318 12.2196 -9.13021 1.76131 0.0765264 0.259427 31.0512 -27.3298 4.29086 -33.6624 0.0 0.0 0.0 0.0 0.0 
543.664 684.083 -1629.6 -118.231 81.8889 117.99 5.10177 0.087719 0.228855 5.1018 0.0729787 0.233973 5.10207 0.0437922 0.241146 5.102 0.081327 0.231203 -19.1932 13.3828 -2.55866 -20.2618 27.0832 3.36607 -0.0 0.0 -0.0 -0.0441821 13.7516 1.54895 -34.0752 -28.463 69.3758 0.227875 -6.4406 0.0128212 -53.4472 -4.4809 4.85094 3.92871 6.79954 29.8926 -0.0 0.0 -0.0 11.345 -25.9183 -18.3017 -4.38866 19.2554 -66.2244 2.05303 45.4779 -0.860519 -56.3209 4.82908 -4.97199 6.48796 -33.3423 -56.2176 0.0 0.0 0.0 20.3926 8.82714 -14.5011 -11.8233 0.303455 1.78588 8.05883 -11.8428 -1.22572 14.6172 -0.0 -0.0 -0.0 0.0 -0.0 11.4329 10.9369 -9.05794 2.96219 0.133269 0.434935 35.3323 -26.4116 4.73949 -39.6296 0.0 0.0 0.0 0.0 0.0 
538.211 682.299 -1629.08 -121.227 81.2811 121.11 5.23242 0.0120176 0.343227 5.23248 -0.00984704 0.343296 5.23236 -0.0510208 0.339626 5.2322 0.00325685 0.343422 -18.8269 11.2962 -1.57478 -19.5268 22.5686 3.20712 -0.0 0.0 -0.0 0.469585 13.9024 2.40337 -35.4915 -27.1236 68.9873 0.230165 -6.50475 0.0130792 -52.2537 -4.33813 4.79555 4.21331 7.07901 32.1856 -0.0 0.0 -0.0 11.383 -25.7672 -18.3946 -4.24776 18.5994 -66.1533 2.16768 47.0322 -0.943348 -55.7341 4.7575 -4.94869 6.52188 -33.3102 -56.5998 0.0 0.0 0.0 20.9785 9.47611 -13.8844 -6.51374 0.212866 0.976468 0.416346 -13.3552 -0.0655346 7.14977 -0.0 -0.0 -0.0 0.0 -0.0 10.8196 10.4646 -9.06003 4.47854 0.210162 0.65482 35.4978 -26.1697 4.74958 -40.1821 0.0 0.0 0.0 0.0 0.0 
532.801 680.284 -1629.9 -123.701 80.6343 123.828 5.36139 0.139425 0.33008 5.36144 0.118139 0.338283 5.36209 0.0774349 0.349851 5.36194 0.131715 0.333232 -19.1442 10.8576 -1.939 -19.8166 21.9127 2.74064 -0.0 0.0 -0.0 0.677593 12.1293 2.56626 -35.6338 -25.4776 69.1787 0.265598 -7.49549 0.0173978 -49.9828 -4.06977 4.682 4.20582 4.63191 31.2442 -0.0 0.0 -0.0 11.5199 -25.8998 -18.5628 -3.82625 17.622 -65.6513 2.21733 47.6784 -0.979869 -56.3332 4.83058 -4.97247 6.61999 -33.5133 -57.6508 0.0 0.0 0.0 21.2849 10.8998 -13.2426 -3.55434 0.129938 0.529917 -3.96318 -13.145 0.629621 4.07266 -0.0 -0.0 -0.0 0.0 -0.0 10.5222 9.9829 -9.04697 4.80402 0.227426 0.701754 37.5761 -25.3165 4.93873 -40.1849 0.0 0.0 0.0 0.0 0.0 
